<mxfile host="65bd71144e">
    <diagram id="WZQ0aDHP0Yc-spQVtL99" name="第 1 页">
        <mxGraphModel dx="1113" dy="1948" grid="0" gridSize="10" guides="1" tooltips="1" connect="1" arrows="1" fold="1" page="1" pageScale="1" pageWidth="827" pageHeight="1169" background="#333333" math="0" shadow="1">
            <root>
                <mxCell id="0"/>
                <mxCell id="1" parent="0"/>
                <mxCell id="191" value="" style="edgeStyle=none;html=1;fillColor=#6d8764;strokeColor=#FFFFFF;endArrow=none;endFill=0;fontColor=#FFFFFF;" edge="1" parent="1" source="96" target="115">
                    <mxGeometry relative="1" as="geometry"/>
                </mxCell>
                <mxCell id="233" style="edgeStyle=none;html=1;entryX=0.963;entryY=0.75;entryDx=0;entryDy=0;entryPerimeter=0;strokeColor=#FFFFFF;endArrow=none;endFill=0;fontColor=#FFFFFF;" edge="1" parent="1" source="96" target="117">
                    <mxGeometry relative="1" as="geometry"/>
                </mxCell>
                <mxCell id="234" style="edgeStyle=none;html=1;strokeColor=#FFFFFF;endArrow=none;endFill=0;fontColor=#FFFFFF;" edge="1" parent="1" source="96" target="119">
                    <mxGeometry relative="1" as="geometry"/>
                </mxCell>
                <mxCell id="235" style="edgeStyle=none;html=1;strokeColor=#FFFFFF;endArrow=none;endFill=0;fontColor=#FFFFFF;" edge="1" parent="1" source="96" target="153">
                    <mxGeometry relative="1" as="geometry"/>
                </mxCell>
                <mxCell id="96" value="银行支行" style="rounded=1;whiteSpace=wrap;html=1;glass=0;shadow=1;fillColor=#6d8764;strokeColor=#3A5431;fontColor=#FFFFFF;" parent="1" vertex="1">
                    <mxGeometry x="215" y="352" width="70" height="30" as="geometry"/>
                </mxCell>
                <mxCell id="115" value="隶属于" style="rhombus;whiteSpace=wrap;html=1;rounded=1;shadow=1;glass=0;fillColor=#6d8764;strokeColor=#3A5431;fontColor=#FFFFFF;" parent="1" vertex="1">
                    <mxGeometry x="207.5" y="249" width="85" height="40" as="geometry"/>
                </mxCell>
                <mxCell id="117" value="支行名称" style="ellipse;whiteSpace=wrap;html=1;rounded=1;shadow=1;glass=0;fillColor=#6d8764;strokeColor=#3A5431;fontColor=#FFFFFF;fontStyle=4" parent="1" vertex="1">
                    <mxGeometry x="80" y="295" width="67.5" height="40" as="geometry"/>
                </mxCell>
                <mxCell id="119" value="地址" style="ellipse;whiteSpace=wrap;html=1;rounded=1;shadow=1;glass=0;fillColor=#6d8764;strokeColor=#3A5431;fontColor=#FFFFFF;" parent="1" vertex="1">
                    <mxGeometry x="79.01000000000002" y="347" width="67.5" height="40" as="geometry"/>
                </mxCell>
                <mxCell id="153" value="联系方式" style="ellipse;whiteSpace=wrap;html=1;rounded=1;shadow=1;glass=0;fillColor=#6d8764;strokeColor=#3A5431;fontColor=#FFFFFF;" parent="1" vertex="1">
                    <mxGeometry x="79.01000000000002" y="399" width="67.5" height="40" as="geometry"/>
                </mxCell>
                <mxCell id="193" value="" style="edgeStyle=none;html=1;endArrow=none;endFill=0;fillColor=#6d8764;strokeColor=#FFFFFF;fontColor=#FFFFFF;" edge="1" parent="1" source="176" target="115">
                    <mxGeometry relative="1" as="geometry"/>
                </mxCell>
                <mxCell id="202" value="" style="edgeStyle=none;html=1;strokeColor=#FFFFFF;endArrow=none;endFill=0;fontColor=#FFFFFF;" edge="1" parent="1" source="176" target="200">
                    <mxGeometry relative="1" as="geometry"/>
                </mxCell>
                <mxCell id="239" style="edgeStyle=none;html=1;entryX=0;entryY=0.5;entryDx=0;entryDy=0;strokeColor=#FFFFFF;endArrow=none;endFill=0;fontColor=#FFFFFF;" edge="1" parent="1" source="176" target="236">
                    <mxGeometry relative="1" as="geometry"/>
                </mxCell>
                <mxCell id="240" style="edgeStyle=none;html=1;strokeColor=#FFFFFF;endArrow=none;endFill=0;fontColor=#FFFFFF;" edge="1" parent="1" source="176" target="237">
                    <mxGeometry relative="1" as="geometry"/>
                </mxCell>
                <mxCell id="241" style="edgeStyle=none;html=1;entryX=0;entryY=0.5;entryDx=0;entryDy=0;strokeColor=#FFFFFF;endArrow=none;endFill=0;fontColor=#FFFFFF;" edge="1" parent="1" source="176" target="238">
                    <mxGeometry relative="1" as="geometry"/>
                </mxCell>
                <mxCell id="176" value="银行部门" style="rounded=1;whiteSpace=wrap;html=1;glass=0;shadow=1;fillColor=#6d8764;strokeColor=#3A5431;fontColor=#FFFFFF;" vertex="1" parent="1">
                    <mxGeometry x="215" y="171" width="70" height="30" as="geometry"/>
                </mxCell>
                <mxCell id="194" value="" style="edgeStyle=none;html=1;endArrow=none;endFill=0;fillColor=#6d8764;strokeColor=#FFFFFF;fontColor=#FFFFFF;" edge="1" parent="1" source="177" target="184">
                    <mxGeometry relative="1" as="geometry"/>
                </mxCell>
                <mxCell id="270" style="edgeStyle=none;html=1;entryX=0.711;entryY=0.975;entryDx=0;entryDy=0;entryPerimeter=0;strokeColor=#FFFFFF;endArrow=none;endFill=0;fontColor=#FFFFFF;" edge="1" parent="1" source="177" target="263">
                    <mxGeometry relative="1" as="geometry"/>
                </mxCell>
                <mxCell id="271" style="edgeStyle=none;html=1;entryX=0.681;entryY=1.05;entryDx=0;entryDy=0;entryPerimeter=0;strokeColor=#FFFFFF;endArrow=none;endFill=0;fontColor=#FFFFFF;" edge="1" parent="1" source="177" target="264">
                    <mxGeometry relative="1" as="geometry"/>
                </mxCell>
                <mxCell id="272" style="edgeStyle=none;html=1;entryX=0.5;entryY=1;entryDx=0;entryDy=0;strokeColor=#FFFFFF;endArrow=none;endFill=0;fontColor=#FFFFFF;" edge="1" parent="1" source="177" target="265">
                    <mxGeometry relative="1" as="geometry"/>
                </mxCell>
                <mxCell id="273" style="edgeStyle=none;html=1;entryX=0.363;entryY=1.025;entryDx=0;entryDy=0;entryPerimeter=0;strokeColor=#FFFFFF;endArrow=none;endFill=0;fontColor=#FFFFFF;" edge="1" parent="1" source="177" target="266">
                    <mxGeometry relative="1" as="geometry"/>
                </mxCell>
                <mxCell id="274" style="edgeStyle=none;html=1;strokeColor=#FFFFFF;endArrow=none;endFill=0;fontColor=#FFFFFF;" edge="1" parent="1" source="177" target="267">
                    <mxGeometry relative="1" as="geometry"/>
                </mxCell>
                <mxCell id="275" style="edgeStyle=none;html=1;entryX=0.352;entryY=0.975;entryDx=0;entryDy=0;entryPerimeter=0;strokeColor=#FFFFFF;endArrow=none;endFill=0;fontColor=#FFFFFF;" edge="1" parent="1" source="177" target="268">
                    <mxGeometry relative="1" as="geometry"/>
                </mxCell>
                <mxCell id="177" value="银行员工" style="rounded=1;whiteSpace=wrap;html=1;glass=0;shadow=1;fillColor=#6d8764;strokeColor=#3A5431;fontColor=#FFFFFF;" vertex="1" parent="1">
                    <mxGeometry x="215" y="-24" width="70" height="30" as="geometry"/>
                </mxCell>
                <mxCell id="279" value="" style="edgeStyle=none;html=1;strokeColor=#FFFFFF;endArrow=none;endFill=0;fontColor=#FFFFFF;" edge="1" parent="1" source="178" target="277">
                    <mxGeometry relative="1" as="geometry"/>
                </mxCell>
                <mxCell id="309" value="" style="edgeStyle=none;html=1;strokeColor=#FFFFFF;fontColor=#FFFFFF;endArrow=none;endFill=0;" edge="1" parent="1" source="178" target="179">
                    <mxGeometry relative="1" as="geometry"/>
                </mxCell>
                <mxCell id="178" value="经理" style="rounded=1;whiteSpace=wrap;html=1;glass=0;shadow=1;fillColor=#6d8764;strokeColor=#3A5431;fontColor=#FFFFFF;" vertex="1" parent="1">
                    <mxGeometry x="361.25" y="75" width="70" height="30" as="geometry"/>
                </mxCell>
                <mxCell id="199" style="edgeStyle=none;html=1;entryX=1;entryY=0.5;entryDx=0;entryDy=0;strokeColor=#FFFFFF;endArrow=none;endFill=0;fontColor=#FFFFFF;" edge="1" parent="1" source="179" target="177">
                    <mxGeometry relative="1" as="geometry"/>
                </mxCell>
                <mxCell id="179" value="经理" style="triangle;whiteSpace=wrap;html=1;rotation=0;fillColor=#6d8764;fontColor=#FFFFFF;strokeColor=#3A5431;direction=north;" vertex="1" parent="1">
                    <mxGeometry x="356.26" y="-6" width="82.49" height="36" as="geometry"/>
                </mxCell>
                <mxCell id="206" value="" style="edgeStyle=none;html=1;strokeColor=#FFFFFF;endArrow=none;endFill=0;fontColor=#FFFFFF;" edge="1" parent="1" source="180" target="187">
                    <mxGeometry relative="1" as="geometry"/>
                </mxCell>
                <mxCell id="254" style="edgeStyle=none;html=1;entryX=0;entryY=1;entryDx=0;entryDy=0;strokeColor=#FFFFFF;endArrow=none;endFill=0;fontColor=#FFFFFF;" edge="1" parent="1" source="180" target="242">
                    <mxGeometry relative="1" as="geometry"/>
                </mxCell>
                <mxCell id="255" style="edgeStyle=none;html=1;entryX=0;entryY=1;entryDx=0;entryDy=0;strokeColor=#FFFFFF;endArrow=none;endFill=0;fontColor=#FFFFFF;" edge="1" parent="1" source="180" target="243">
                    <mxGeometry relative="1" as="geometry"/>
                </mxCell>
                <mxCell id="256" style="edgeStyle=none;html=1;entryX=0;entryY=1;entryDx=0;entryDy=0;strokeColor=#FFFFFF;endArrow=none;endFill=0;fontColor=#FFFFFF;" edge="1" parent="1" source="180" target="244">
                    <mxGeometry relative="1" as="geometry"/>
                </mxCell>
                <mxCell id="257" style="edgeStyle=none;html=1;entryX=0;entryY=1;entryDx=0;entryDy=0;strokeColor=#FFFFFF;endArrow=none;endFill=0;fontColor=#FFFFFF;" edge="1" parent="1" source="180" target="245">
                    <mxGeometry relative="1" as="geometry"/>
                </mxCell>
                <mxCell id="258" style="edgeStyle=none;html=1;entryX=0;entryY=0;entryDx=0;entryDy=0;strokeColor=#FFFFFF;endArrow=none;endFill=0;fontColor=#FFFFFF;" edge="1" parent="1" source="180" target="246">
                    <mxGeometry relative="1" as="geometry"/>
                </mxCell>
                <mxCell id="259" style="edgeStyle=none;html=1;entryX=0;entryY=0;entryDx=0;entryDy=0;strokeColor=#FFFFFF;endArrow=none;endFill=0;fontColor=#FFFFFF;" edge="1" parent="1" source="180" target="247">
                    <mxGeometry relative="1" as="geometry"/>
                </mxCell>
                <mxCell id="260" style="edgeStyle=none;html=1;strokeColor=#FFFFFF;endArrow=none;endFill=0;fontColor=#FFFFFF;" edge="1" parent="1" source="180" target="248">
                    <mxGeometry relative="1" as="geometry"/>
                </mxCell>
                <mxCell id="261" style="edgeStyle=none;html=1;entryX=0;entryY=0;entryDx=0;entryDy=0;strokeColor=#FFFFFF;endArrow=none;endFill=0;fontColor=#FFFFFF;" edge="1" parent="1" source="180" target="252">
                    <mxGeometry relative="1" as="geometry"/>
                </mxCell>
                <mxCell id="262" style="edgeStyle=none;html=1;entryX=0;entryY=0;entryDx=0;entryDy=0;strokeColor=#FFFFFF;endArrow=none;endFill=0;fontColor=#FFFFFF;" edge="1" parent="1" source="180" target="253">
                    <mxGeometry relative="1" as="geometry"/>
                </mxCell>
                <mxCell id="180" value="贷款" style="rounded=1;whiteSpace=wrap;html=1;glass=0;shadow=1;fillColor=#6d8764;strokeColor=#3A5431;fontColor=#FFFFFF;" vertex="1" parent="1">
                    <mxGeometry x="531" y="455" width="70" height="30" as="geometry"/>
                </mxCell>
                <mxCell id="217" value="" style="edgeStyle=none;html=1;strokeColor=#FFFFFF;endArrow=none;endFill=0;fontColor=#FFFFFF;" edge="1" parent="1" source="181" target="215">
                    <mxGeometry relative="1" as="geometry"/>
                </mxCell>
                <mxCell id="219" style="edgeStyle=none;html=1;entryX=0.5;entryY=0;entryDx=0;entryDy=0;strokeColor=#FFFFFF;endArrow=none;endFill=0;fontColor=#FFFFFF;" edge="1" parent="1" source="181" target="214">
                    <mxGeometry relative="1" as="geometry"/>
                </mxCell>
                <mxCell id="220" style="edgeStyle=none;html=1;entryX=0.681;entryY=0.025;entryDx=0;entryDy=0;entryPerimeter=0;strokeColor=#FFFFFF;endArrow=none;endFill=0;fontColor=#FFFFFF;" edge="1" parent="1" source="181" target="213">
                    <mxGeometry relative="1" as="geometry"/>
                </mxCell>
                <mxCell id="221" style="edgeStyle=none;html=1;entryX=0.5;entryY=0;entryDx=0;entryDy=0;strokeColor=#FFFFFF;endArrow=none;endFill=0;fontColor=#FFFFFF;" edge="1" parent="1" source="181" target="212">
                    <mxGeometry relative="1" as="geometry"/>
                </mxCell>
                <mxCell id="222" style="edgeStyle=none;html=1;entryX=0.326;entryY=0.075;entryDx=0;entryDy=0;entryPerimeter=0;strokeColor=#FFFFFF;endArrow=none;endFill=0;fontColor=#FFFFFF;" edge="1" parent="1" source="181" target="216">
                    <mxGeometry relative="1" as="geometry"/>
                </mxCell>
                <mxCell id="181" value="账户" style="rounded=1;whiteSpace=wrap;html=1;glass=0;shadow=1;fillColor=#6d8764;strokeColor=#3A5431;fontColor=#FFFFFF;" vertex="1" parent="1">
                    <mxGeometry x="215" y="806" width="70" height="30" as="geometry"/>
                </mxCell>
                <mxCell id="285" style="edgeStyle=none;html=1;strokeColor=#FFFFFF;endArrow=none;endFill=0;fontColor=#FFFFFF;" edge="1" parent="1" source="182" target="280">
                    <mxGeometry relative="1" as="geometry"/>
                </mxCell>
                <mxCell id="286" style="edgeStyle=none;html=1;strokeColor=#FFFFFF;endArrow=none;endFill=0;fontColor=#FFFFFF;" edge="1" parent="1" source="182" target="281">
                    <mxGeometry relative="1" as="geometry"/>
                </mxCell>
                <mxCell id="287" style="edgeStyle=none;html=1;strokeColor=#FFFFFF;endArrow=none;endFill=0;fontColor=#FFFFFF;" edge="1" parent="1" source="182" target="282">
                    <mxGeometry relative="1" as="geometry"/>
                </mxCell>
                <mxCell id="288" style="edgeStyle=none;html=1;strokeColor=#FFFFFF;endArrow=none;endFill=0;fontColor=#FFFFFF;" edge="1" parent="1" source="182" target="283">
                    <mxGeometry relative="1" as="geometry"/>
                </mxCell>
                <mxCell id="289" style="edgeStyle=none;html=1;strokeColor=#FFFFFF;endArrow=none;endFill=0;fontColor=#FFFFFF;" edge="1" parent="1" source="182" target="284">
                    <mxGeometry relative="1" as="geometry"/>
                </mxCell>
                <mxCell id="182" value="客户&lt;span style=&quot;font-family: monospace; font-size: 0px; text-align: start;&quot;&gt;%3CmxGraphModel%3E%3Croot%3E%3CmxCell%20id%3D%220%22%2F%3E%3CmxCell%20id%3D%221%22%20parent%3D%220%22%2F%3E%3CmxCell%20id%3D%222%22%20value%3D%22%E8%B4%A6%E6%88%B7%22%20style%3D%22rounded%3D1%3BwhiteSpace%3Dwrap%3Bhtml%3D1%3Bglass%3D0%3Bshadow%3D1%3BfillColor%3D%236d8764%3BstrokeColor%3D%233A5431%3BfontColor%3D%23ffffff%3B%22%20vertex%3D%221%22%20parent%3D%221%22%3E%3CmxGeometry%20x%3D%22531%22%20y%3D%22416%22%20width%3D%2270%22%20height%3D%2230%22%20as%3D%22geometry%22%2F%3E%3C%2FmxCell%3E%3C%2Froot%3E%3C%2FmxGraphModel%3E&lt;/span&gt;" style="rounded=1;whiteSpace=wrap;html=1;glass=0;shadow=1;fillColor=#6d8764;strokeColor=#3A5431;fontColor=#FFFFFF;" vertex="1" parent="1">
                    <mxGeometry x="215" y="575" width="70" height="30" as="geometry"/>
                </mxCell>
                <mxCell id="229" style="edgeStyle=none;html=1;strokeColor=#FFFFFF;endArrow=none;endFill=0;fontColor=#FFFFFF;" edge="1" parent="1" source="183" target="224">
                    <mxGeometry relative="1" as="geometry"/>
                </mxCell>
                <mxCell id="230" style="edgeStyle=none;html=1;strokeColor=#FFFFFF;endArrow=none;endFill=0;fontColor=#FFFFFF;" edge="1" parent="1" source="183" target="225">
                    <mxGeometry relative="1" as="geometry"/>
                </mxCell>
                <mxCell id="231" style="edgeStyle=none;html=1;strokeColor=#FFFFFF;endArrow=none;endFill=0;fontColor=#FFFFFF;" edge="1" parent="1" source="183" target="226">
                    <mxGeometry relative="1" as="geometry"/>
                </mxCell>
                <mxCell id="232" style="edgeStyle=none;html=1;strokeColor=#FFFFFF;endArrow=none;endFill=0;fontColor=#FFFFFF;" edge="1" parent="1" source="183" target="227">
                    <mxGeometry relative="1" as="geometry"/>
                </mxCell>
                <mxCell id="183" value="账单" style="rounded=1;whiteSpace=wrap;html=1;glass=0;shadow=1;fillColor=#6d8764;strokeColor=#3A5431;fontColor=#FFFFFF;" vertex="1" parent="1">
                    <mxGeometry x="508" y="806" width="70" height="30" as="geometry"/>
                </mxCell>
                <mxCell id="195" value="" style="edgeStyle=none;html=1;endArrow=none;endFill=0;fillColor=#6d8764;strokeColor=#FFFFFF;fontColor=#FFFFFF;" edge="1" parent="1" source="184" target="176">
                    <mxGeometry relative="1" as="geometry"/>
                </mxCell>
                <mxCell id="184" value="工作于" style="rhombus;whiteSpace=wrap;html=1;rounded=1;shadow=1;glass=0;fillColor=#6d8764;strokeColor=#3A5431;fontColor=#FFFFFF;" vertex="1" parent="1">
                    <mxGeometry x="207.5" y="64" width="85" height="40" as="geometry"/>
                </mxCell>
                <mxCell id="204" value="" style="edgeStyle=none;html=1;strokeColor=#FFFFFF;endArrow=none;endFill=0;fontColor=#FFFFFF;" edge="1" parent="1" source="185" target="182">
                    <mxGeometry relative="1" as="geometry"/>
                </mxCell>
                <mxCell id="205" value="" style="edgeStyle=none;html=1;strokeColor=#FFFFFF;endArrow=none;endFill=0;fontColor=#FFFFFF;" edge="1" parent="1" source="185" target="181">
                    <mxGeometry relative="1" as="geometry"/>
                </mxCell>
                <mxCell id="185" value="开户" style="rhombus;whiteSpace=wrap;html=1;rounded=1;shadow=1;glass=0;fillColor=#6d8764;strokeColor=#3A5431;fontColor=#FFFFFF;" vertex="1" parent="1">
                    <mxGeometry x="207.5" y="682" width="85" height="40" as="geometry"/>
                </mxCell>
                <mxCell id="210" value="" style="edgeStyle=none;html=1;strokeColor=#FFFFFF;endArrow=none;endFill=0;fontColor=#FFFFFF;" edge="1" parent="1" target="183">
                    <mxGeometry relative="1" as="geometry">
                        <mxPoint x="441" y="821" as="sourcePoint"/>
                    </mxGeometry>
                </mxCell>
                <mxCell id="211" value="" style="edgeStyle=none;html=1;strokeColor=#FFFFFF;endArrow=none;endFill=0;fontColor=#FFFFFF;" edge="1" parent="1" source="186" target="181">
                    <mxGeometry relative="1" as="geometry"/>
                </mxCell>
                <mxCell id="186" value="拥有" style="rhombus;whiteSpace=wrap;html=1;rounded=1;shadow=1;glass=0;fillColor=#6d8764;strokeColor=#3A5431;fontColor=#FFFFFF;" vertex="1" parent="1">
                    <mxGeometry x="356" y="801" width="85" height="40" as="geometry"/>
                </mxCell>
                <mxCell id="207" value="" style="edgeStyle=none;html=1;strokeColor=#FFFFFF;endArrow=none;endFill=0;fontColor=#FFFFFF;" edge="1" parent="1" source="187" target="96">
                    <mxGeometry relative="1" as="geometry"/>
                </mxCell>
                <mxCell id="187" value="批准" style="rhombus;whiteSpace=wrap;html=1;rounded=1;shadow=1;glass=0;fillColor=#6d8764;strokeColor=#3A5431;fontColor=#FFFFFF;" vertex="1" parent="1">
                    <mxGeometry x="356" y="402" width="85" height="40" as="geometry"/>
                </mxCell>
                <mxCell id="203" value="" style="edgeStyle=none;html=1;strokeColor=#FFFFFF;endArrow=none;endFill=0;fontColor=#FFFFFF;" edge="1" parent="1" source="188" target="182">
                    <mxGeometry relative="1" as="geometry"/>
                </mxCell>
                <mxCell id="310" style="edgeStyle=none;html=1;entryX=0.5;entryY=1;entryDx=0;entryDy=0;strokeColor=#FFFFFF;fontColor=#FFFFFF;endArrow=none;endFill=0;" edge="1" parent="1" source="188" target="96">
                    <mxGeometry relative="1" as="geometry"/>
                </mxCell>
                <mxCell id="188" value="注册" style="rhombus;whiteSpace=wrap;html=1;rounded=1;shadow=1;glass=0;fillColor=#6d8764;strokeColor=#3A5431;fontColor=#FFFFFF;" vertex="1" parent="1">
                    <mxGeometry x="207.5" y="450" width="85" height="40" as="geometry"/>
                </mxCell>
                <mxCell id="208" style="edgeStyle=none;html=1;entryX=0.25;entryY=1;entryDx=0;entryDy=0;strokeColor=#FFFFFF;endArrow=none;endFill=0;fontColor=#FFFFFF;" edge="1" parent="1" source="189" target="180">
                    <mxGeometry relative="1" as="geometry"/>
                </mxCell>
                <mxCell id="209" style="edgeStyle=none;html=1;strokeColor=#FFFFFF;endArrow=none;endFill=0;fontColor=#FFFFFF;" edge="1" parent="1" source="189" target="182">
                    <mxGeometry relative="1" as="geometry"/>
                </mxCell>
                <mxCell id="189" value="申请" style="rhombus;whiteSpace=wrap;html=1;rounded=1;shadow=1;glass=0;fillColor=#6d8764;strokeColor=#3A5431;fontColor=#FFFFFF;" vertex="1" parent="1">
                    <mxGeometry x="356" y="508" width="85" height="40" as="geometry"/>
                </mxCell>
                <mxCell id="201" style="edgeStyle=none;html=1;entryX=0.5;entryY=1;entryDx=0;entryDy=0;strokeColor=#FFFFFF;endArrow=none;endFill=0;fontColor=#FFFFFF;" edge="1" parent="1" source="200" target="178">
                    <mxGeometry relative="1" as="geometry"/>
                </mxCell>
                <mxCell id="200" value="工作于" style="rhombus;whiteSpace=wrap;html=1;rounded=1;shadow=1;glass=0;fillColor=#6d8764;strokeColor=#3A5431;fontColor=#FFFFFF;" vertex="1" parent="1">
                    <mxGeometry x="353.75" y="150" width="85" height="40" as="geometry"/>
                </mxCell>
                <mxCell id="212" value="账户id" style="ellipse;whiteSpace=wrap;html=1;rounded=1;shadow=1;glass=0;fillColor=#6d8764;strokeColor=#3A5431;fontColor=#FFFFFF;fontStyle=4" vertex="1" parent="1">
                    <mxGeometry x="60" y="923" width="67.5" height="40" as="geometry"/>
                </mxCell>
                <mxCell id="213" value="所属支行" style="ellipse;whiteSpace=wrap;html=1;rounded=1;shadow=1;glass=0;fillColor=#6d8764;strokeColor=#3A5431;fontColor=#FFFFFF;" vertex="1" parent="1">
                    <mxGeometry x="133" y="923" width="67.5" height="40" as="geometry"/>
                </mxCell>
                <mxCell id="214" value="所属用户" style="ellipse;whiteSpace=wrap;html=1;rounded=1;shadow=1;glass=0;fillColor=#6d8764;strokeColor=#3A5431;fontColor=#FFFFFF;" vertex="1" parent="1">
                    <mxGeometry x="203" y="923" width="67.5" height="40" as="geometry"/>
                </mxCell>
                <mxCell id="215" value="余额" style="ellipse;whiteSpace=wrap;html=1;rounded=1;shadow=1;glass=0;fillColor=#6d8764;strokeColor=#3A5431;fontColor=#FFFFFF;" vertex="1" parent="1">
                    <mxGeometry x="270.5" y="923" width="67.5" height="40" as="geometry"/>
                </mxCell>
                <mxCell id="216" value="开户日期" style="ellipse;whiteSpace=wrap;html=1;rounded=1;shadow=1;glass=0;fillColor=#6d8764;strokeColor=#3A5431;fontColor=#FFFFFF;" vertex="1" parent="1">
                    <mxGeometry x="341" y="923" width="67.5" height="40" as="geometry"/>
                </mxCell>
                <mxCell id="228" style="edgeStyle=none;html=1;entryX=0.5;entryY=1;entryDx=0;entryDy=0;strokeColor=#FFFFFF;endArrow=none;endFill=0;fontColor=#FFFFFF;" edge="1" parent="1" source="223" target="183">
                    <mxGeometry relative="1" as="geometry"/>
                </mxCell>
                <mxCell id="223" value="账单id" style="ellipse;whiteSpace=wrap;html=1;rounded=1;shadow=1;glass=0;fillColor=#6d8764;strokeColor=#3A5431;fontColor=#FFFFFF;fontStyle=4" vertex="1" parent="1">
                    <mxGeometry x="415.5" y="923" width="67.5" height="40" as="geometry"/>
                </mxCell>
                <mxCell id="224" value="所属账户" style="ellipse;whiteSpace=wrap;html=1;rounded=1;shadow=1;glass=0;fillColor=#6d8764;strokeColor=#3A5431;fontColor=#FFFFFF;" vertex="1" parent="1">
                    <mxGeometry x="488.5" y="923" width="67.5" height="40" as="geometry"/>
                </mxCell>
                <mxCell id="225" value="交易金额" style="ellipse;whiteSpace=wrap;html=1;rounded=1;shadow=1;glass=0;fillColor=#6d8764;strokeColor=#3A5431;fontColor=#FFFFFF;" vertex="1" parent="1">
                    <mxGeometry x="558.5" y="923" width="67.5" height="40" as="geometry"/>
                </mxCell>
                <mxCell id="226" value="交易类型" style="ellipse;whiteSpace=wrap;html=1;rounded=1;shadow=1;glass=0;fillColor=#6d8764;strokeColor=#3A5431;fontColor=#FFFFFF;" vertex="1" parent="1">
                    <mxGeometry x="626" y="923" width="67.5" height="40" as="geometry"/>
                </mxCell>
                <mxCell id="227" value="交易时间" style="ellipse;whiteSpace=wrap;html=1;rounded=1;shadow=1;glass=0;fillColor=#6d8764;strokeColor=#3A5431;fontColor=#FFFFFF;" vertex="1" parent="1">
                    <mxGeometry x="696.5" y="923" width="67.5" height="40" as="geometry"/>
                </mxCell>
                <mxCell id="236" value="部门ID" style="ellipse;whiteSpace=wrap;html=1;rounded=1;shadow=1;glass=0;fillColor=#6d8764;strokeColor=#3A5431;fontColor=#FFFFFF;fontStyle=4" vertex="1" parent="1">
                    <mxGeometry x="80.99000000000001" y="121" width="67.5" height="40" as="geometry"/>
                </mxCell>
                <mxCell id="237" value="所属支行" style="ellipse;whiteSpace=wrap;html=1;rounded=1;shadow=1;glass=0;fillColor=#6d8764;strokeColor=#3A5431;fontColor=#FFFFFF;" vertex="1" parent="1">
                    <mxGeometry x="80" y="173" width="67.5" height="40" as="geometry"/>
                </mxCell>
                <mxCell id="238" value="部门名称" style="ellipse;whiteSpace=wrap;html=1;rounded=1;shadow=1;glass=0;fillColor=#6d8764;strokeColor=#3A5431;fontColor=#FFFFFF;" vertex="1" parent="1">
                    <mxGeometry x="80" y="225" width="67.5" height="40" as="geometry"/>
                </mxCell>
                <mxCell id="242" value="贷款ID" style="ellipse;whiteSpace=wrap;html=1;rounded=1;shadow=1;glass=0;fillColor=#6d8764;strokeColor=#3A5431;fontColor=#FFFFFF;fontStyle=4" vertex="1" parent="1">
                    <mxGeometry x="670.99" y="265" width="67.5" height="40" as="geometry"/>
                </mxCell>
                <mxCell id="243" value="贷款客户" style="ellipse;whiteSpace=wrap;html=1;rounded=1;shadow=1;glass=0;fillColor=#6d8764;strokeColor=#3A5431;fontColor=#FFFFFF;" vertex="1" parent="1">
                    <mxGeometry x="670" y="317" width="67.5" height="40" as="geometry"/>
                </mxCell>
                <mxCell id="244" value="贷款支行" style="ellipse;whiteSpace=wrap;html=1;rounded=1;shadow=1;glass=0;fillColor=#6d8764;strokeColor=#3A5431;fontColor=#FFFFFF;" vertex="1" parent="1">
                    <mxGeometry x="670" y="369" width="67.5" height="40" as="geometry"/>
                </mxCell>
                <mxCell id="245" value="贷款金额" style="ellipse;whiteSpace=wrap;html=1;rounded=1;shadow=1;glass=0;fillColor=#6d8764;strokeColor=#3A5431;fontColor=#FFFFFF;" vertex="1" parent="1">
                    <mxGeometry x="670" y="420" width="67.5" height="40" as="geometry"/>
                </mxCell>
                <mxCell id="246" value="未还金额" style="ellipse;whiteSpace=wrap;html=1;rounded=1;shadow=1;glass=0;fillColor=#6d8764;strokeColor=#3A5431;fontColor=#FFFFFF;" vertex="1" parent="1">
                    <mxGeometry x="670" y="472" width="67.5" height="40" as="geometry"/>
                </mxCell>
                <mxCell id="247" value="贷款时间" style="ellipse;whiteSpace=wrap;html=1;rounded=1;shadow=1;glass=0;fillColor=#6d8764;strokeColor=#3A5431;fontColor=#FFFFFF;" vertex="1" parent="1">
                    <mxGeometry x="670" y="522" width="67.5" height="40" as="geometry"/>
                </mxCell>
                <mxCell id="248" value="贷款期限" style="ellipse;whiteSpace=wrap;html=1;rounded=1;shadow=1;glass=0;fillColor=#6d8764;strokeColor=#3A5431;fontColor=#FFFFFF;" vertex="1" parent="1">
                    <mxGeometry x="670" y="574" width="67.5" height="40" as="geometry"/>
                </mxCell>
                <mxCell id="252" value="审批状态" style="ellipse;whiteSpace=wrap;html=1;rounded=1;shadow=1;glass=0;fillColor=#6d8764;strokeColor=#3A5431;fontColor=#FFFFFF;" vertex="1" parent="1">
                    <mxGeometry x="670" y="626" width="67.5" height="40" as="geometry"/>
                </mxCell>
                <mxCell id="253" value="还款状态" style="ellipse;whiteSpace=wrap;html=1;rounded=1;shadow=1;glass=0;fillColor=#6d8764;strokeColor=#3A5431;fontColor=#FFFFFF;" vertex="1" parent="1">
                    <mxGeometry x="670" y="678" width="67.5" height="40" as="geometry"/>
                </mxCell>
                <mxCell id="263" value="员工id" style="ellipse;whiteSpace=wrap;html=1;rounded=1;shadow=1;glass=0;fillColor=#6d8764;strokeColor=#3A5431;fontColor=#FFFFFF;fontStyle=4" vertex="1" parent="1">
                    <mxGeometry x="51" y="-134" width="67.5" height="40" as="geometry"/>
                </mxCell>
                <mxCell id="264" value="所属部门" style="ellipse;whiteSpace=wrap;html=1;rounded=1;shadow=1;glass=0;fillColor=#6d8764;strokeColor=#3A5431;fontColor=#FFFFFF;" vertex="1" parent="1">
                    <mxGeometry x="124" y="-134" width="67.5" height="40" as="geometry"/>
                </mxCell>
                <mxCell id="265" value="名字" style="ellipse;whiteSpace=wrap;html=1;rounded=1;shadow=1;glass=0;fillColor=#6d8764;strokeColor=#3A5431;fontColor=#FFFFFF;" vertex="1" parent="1">
                    <mxGeometry x="194" y="-134" width="67.5" height="40" as="geometry"/>
                </mxCell>
                <mxCell id="266" value="联系方式" style="ellipse;whiteSpace=wrap;html=1;rounded=1;shadow=1;glass=0;fillColor=#6d8764;strokeColor=#3A5431;fontColor=#FFFFFF;" vertex="1" parent="1">
                    <mxGeometry x="261.5" y="-134" width="67.5" height="40" as="geometry"/>
                </mxCell>
                <mxCell id="267" value="照片" style="ellipse;whiteSpace=wrap;html=1;rounded=1;shadow=1;glass=0;fillColor=#6d8764;strokeColor=#3A5431;fontColor=#FFFFFF;" vertex="1" parent="1">
                    <mxGeometry x="332" y="-134" width="67.5" height="40" as="geometry"/>
                </mxCell>
                <mxCell id="268" value="地址" style="ellipse;whiteSpace=wrap;html=1;rounded=1;shadow=1;glass=0;fillColor=#6d8764;strokeColor=#3A5431;fontColor=#FFFFFF;" vertex="1" parent="1">
                    <mxGeometry x="402.25" y="-134" width="67.5" height="40" as="geometry"/>
                </mxCell>
                <mxCell id="277" value="所属部门" style="ellipse;whiteSpace=wrap;html=1;rounded=1;shadow=1;glass=0;fillColor=#6d8764;strokeColor=#3A5431;fontColor=#FFFFFF;" vertex="1" parent="1">
                    <mxGeometry x="463.5" y="70" width="67.5" height="40" as="geometry"/>
                </mxCell>
                <mxCell id="280" value="身份证号" style="ellipse;whiteSpace=wrap;html=1;rounded=1;shadow=1;glass=0;fillColor=#6d8764;strokeColor=#3A5431;fontColor=#FFFFFF;fontStyle=4" vertex="1" parent="1">
                    <mxGeometry x="79.00999999999999" y="469" width="67.5" height="40" as="geometry"/>
                </mxCell>
                <mxCell id="281" value="所属支行" style="ellipse;whiteSpace=wrap;html=1;rounded=1;shadow=1;glass=0;fillColor=#6d8764;strokeColor=#3A5431;fontColor=#FFFFFF;" vertex="1" parent="1">
                    <mxGeometry x="78.02000000000001" y="521" width="67.5" height="40" as="geometry"/>
                </mxCell>
                <mxCell id="282" value="联系方式" style="ellipse;whiteSpace=wrap;html=1;rounded=1;shadow=1;glass=0;fillColor=#6d8764;strokeColor=#3A5431;fontColor=#FFFFFF;" vertex="1" parent="1">
                    <mxGeometry x="78.02000000000001" y="573" width="67.5" height="40" as="geometry"/>
                </mxCell>
                <mxCell id="283" value="地址" style="ellipse;whiteSpace=wrap;html=1;rounded=1;shadow=1;glass=0;fillColor=#6d8764;strokeColor=#3A5431;fontColor=#FFFFFF;" vertex="1" parent="1">
                    <mxGeometry x="79.01" y="619" width="67.5" height="40" as="geometry"/>
                </mxCell>
                <mxCell id="284" value="账户数" style="ellipse;whiteSpace=wrap;html=1;rounded=1;shadow=1;glass=0;fillColor=#6d8764;strokeColor=#3A5431;fontColor=#FFFFFF;" vertex="1" parent="1">
                    <mxGeometry x="79.01" y="671" width="67.5" height="40" as="geometry"/>
                </mxCell>
                <mxCell id="291" value="1" style="text;html=1;strokeColor=none;fillColor=none;align=center;verticalAlign=middle;whiteSpace=wrap;rounded=0;fontColor=#FFFFFF;" vertex="1" parent="1">
                    <mxGeometry x="235" y="129" width="60" height="30" as="geometry"/>
                </mxCell>
                <mxCell id="292" value="1" style="text;html=1;strokeColor=none;fillColor=none;align=center;verticalAlign=middle;whiteSpace=wrap;rounded=0;fontColor=#FFFFFF;" vertex="1" parent="1">
                    <mxGeometry x="289" y="183" width="60" height="30" as="geometry"/>
                </mxCell>
                <mxCell id="293" value="1" style="text;html=1;strokeColor=none;fillColor=none;align=center;verticalAlign=middle;whiteSpace=wrap;rounded=0;fontColor=#FFFFFF;" vertex="1" parent="1">
                    <mxGeometry x="393" y="113" width="60" height="30" as="geometry"/>
                </mxCell>
                <mxCell id="295" value="1" style="text;html=1;strokeColor=none;fillColor=none;align=center;verticalAlign=middle;whiteSpace=wrap;rounded=0;fontColor=#FFFFFF;" vertex="1" parent="1">
                    <mxGeometry x="240" y="317" width="60" height="30" as="geometry"/>
                </mxCell>
                <mxCell id="296" value="1" style="text;html=1;strokeColor=none;fillColor=none;align=center;verticalAlign=middle;whiteSpace=wrap;rounded=0;fontColor=#FFFFFF;" vertex="1" parent="1">
                    <mxGeometry x="293.75" y="359" width="60" height="30" as="geometry"/>
                </mxCell>
                <mxCell id="297" value="1" style="text;html=1;strokeColor=none;fillColor=none;align=center;verticalAlign=middle;whiteSpace=wrap;rounded=0;fontColor=#FFFFFF;" vertex="1" parent="1">
                    <mxGeometry x="246" y="404" width="60" height="30" as="geometry"/>
                </mxCell>
                <mxCell id="298" value="1" style="text;html=1;strokeColor=none;fillColor=none;align=center;verticalAlign=middle;whiteSpace=wrap;rounded=0;fontColor=#FFFFFF;" vertex="1" parent="1">
                    <mxGeometry x="235" y="613" width="60" height="30" as="geometry"/>
                </mxCell>
                <mxCell id="299" value="1" style="text;html=1;strokeColor=none;fillColor=none;align=center;verticalAlign=middle;whiteSpace=wrap;rounded=0;fontColor=#FFFFFF;" vertex="1" parent="1">
                    <mxGeometry x="278" y="789" width="60" height="30" as="geometry"/>
                </mxCell>
                <mxCell id="300" value="n" style="text;html=1;strokeColor=none;fillColor=none;align=center;verticalAlign=middle;whiteSpace=wrap;rounded=0;fontColor=#FFFFFF;" vertex="1" parent="1">
                    <mxGeometry x="240" y="23" width="60" height="30" as="geometry"/>
                </mxCell>
                <mxCell id="301" value="n" style="text;html=1;strokeColor=none;fillColor=none;align=center;verticalAlign=middle;whiteSpace=wrap;rounded=0;fontColor=#FFFFFF;" vertex="1" parent="1">
                    <mxGeometry x="240" y="210" width="60" height="30" as="geometry"/>
                </mxCell>
                <mxCell id="302" value="n" style="text;html=1;strokeColor=none;fillColor=none;align=center;verticalAlign=middle;whiteSpace=wrap;rounded=0;fontColor=#FFFFFF;" vertex="1" parent="1">
                    <mxGeometry x="463.5" y="417" width="60" height="30" as="geometry"/>
                </mxCell>
                <mxCell id="303" value="n" style="text;html=1;strokeColor=none;fillColor=none;align=center;verticalAlign=middle;whiteSpace=wrap;rounded=0;fontColor=#FFFFFF;" vertex="1" parent="1">
                    <mxGeometry x="451" y="474" width="60" height="30" as="geometry"/>
                </mxCell>
                <mxCell id="304" value="n" style="text;html=1;strokeColor=none;fillColor=none;align=center;verticalAlign=middle;whiteSpace=wrap;rounded=0;fontColor=#FFFFFF;" vertex="1" parent="1">
                    <mxGeometry x="240" y="748" width="60" height="30" as="geometry"/>
                </mxCell>
                <mxCell id="305" value="n" style="text;html=1;strokeColor=none;fillColor=none;align=center;verticalAlign=middle;whiteSpace=wrap;rounded=0;fontColor=#FFFFFF;" vertex="1" parent="1">
                    <mxGeometry x="446" y="787" width="60" height="30" as="geometry"/>
                </mxCell>
                <mxCell id="306" value="1" style="text;html=1;strokeColor=none;fillColor=none;align=center;verticalAlign=middle;whiteSpace=wrap;rounded=0;fontColor=#FFFFFF;" vertex="1" parent="1">
                    <mxGeometry x="281" y="532" width="60" height="30" as="geometry"/>
                </mxCell>
                <mxCell id="307" value="n" style="text;html=1;strokeColor=none;fillColor=none;align=center;verticalAlign=middle;whiteSpace=wrap;rounded=0;fontColor=#FFFFFF;" vertex="1" parent="1">
                    <mxGeometry x="232.5" y="522" width="60" height="30" as="geometry"/>
                </mxCell>
            </root>
        </mxGraphModel>
    </diagram>
</mxfile>